<svg version="1.1" id="Layer_1" xmlns="http://www.w3.org/2000/svg" xmlns:xlink="http://www.w3.org/1999/xlink" x="0px" y="0px" viewBox="0 0 578.9 136.7" style="enable-background:new 0 0 578.9 136.7;" xml:space="preserve">
 <style type="text/css">
  .st0{fill:#0A7AF5;}
 </style>
 <g>
  <g>
   <path class="st0" d="M492.1,0.2c-3.3,0.6-6.8,3.3-8.4,6.6c-1.3,2.7-1.4,6.9-0.1,9.7c1,2.2,3.9,5.1,6.2,6.1c2.5,1.1,6.6,1,9.3-0.2
			c8.2-3.8,9.4-14.6,2.2-20.1C498.7,0.4,495.2-0.4,492.1,0.2L492.1,0.2z M492.1,0.2">
   </path>
   <path class="st0" d="M61,3.2c-6.9,0.7-14.2,2.5-20,5c-3.9,1.7-7.5,3.6-6.2,3.4c6.6-1.3,18.5-1.5,24.9-0.5c3.7,0.6,3.8,0.6,4.5-0.1
			c3.7-3.4,10.3-1.5,11.2,3.3c0.2,0.9,0.5,1.2,2,1.7c1,0.3,4.1,1.7,6.8,3l5,2.4l2.3-1.1c4.3-2.1,9-1.3,12.1,2.2
			c2,2.3,2.8,4.5,2.5,7.8l-0.2,2.5l4.4,4.5c2.4,2.5,5.2,5.6,6.1,6.8c1.5,2.2,1.8,2.4,2.9,2.4c3.4,0,6.3,3.1,6.3,6.5
			c0,1-0.2,2.4-0.5,3.1c-0.5,1.2-0.5,1.3,0.8,4.3c2.8,6.4,4.8,13,5.7,19.6l0.5,3.3l0.5-2.3c0.2-1.3,0.6-5.4,0.7-9.3
			c0.1-5.7,0.1-7.9-0.4-11.4c-4.3-30.4-28.7-54-59.2-57.2C70.8,3,63.6,2.9,61,3.2L61,3.2z M61,3.2">
   </path>
   <path class="st0" d="M39.9,16.4c-5.1,0.7-9.9,1.8-14.7,3.4c-4.2,1.3-4.2,1.4-6.5,3.7c-7,7.3-12.1,15.8-15.3,25.4
			c-8.3,25-1.1,52.4,18.5,70.5c1.6,1.5,3,2.7,3.2,2.7c0.2,0,0.3-16.4,0.3-36.5V49h21v14.5l1-1.9C51,55,58.3,49.5,66.1,47.4
			c3.7-1,13.2-0.9,17.1,0.2c10.2,2.8,17.6,9.7,21,19.9c2.2,6.4,2.2,7.5,2.2,33.1v23.2l1-0.7c6.4-4.6,13.9-13.4,18.4-21.5l1.3-2.4
			v-6.5c0-6.7-0.4-10.8-1.5-16.4c-0.8-3.7-2.9-10.3-4.5-13.8c-1-2.2-1.2-2.3-2.2-2.3c-4.7,0-7.9-5.6-5.7-9.8c0.5-0.9,0.4-1-1.4-3.3
			c-2.1-2.8-6.8-7.9-8.2-8.9l-1-0.7l-1.9,0.9c-1.5,0.8-2.3,1-4.5,1c-4.4,0-7.5-2.1-9.3-6c-0.7-1.6-0.9-2.3-0.7-4.5l0.1-2.7l-4.9-2.4
			c-7.1-3.4-7.1-3.4-8.7-2.3c-3.5,2.3-8,1.2-9.7-2.5c-0.4-0.9-0.8-1.7-0.8-1.8c-0.1-0.1-1.3-0.4-2.8-0.6C55.2,16,44,15.8,39.9,16.4
			L39.9,16.4z M39.9,16.4">
   </path>
   <path class="st0" d="M204.2,36.4c-5.7,1.2-9.8,3.3-13.9,7.2l-2.5,2.4v-3.8c0-2.5-0.1-3.9-0.4-4.2c-0.5-0.5-14.7-0.6-15.8-0.2
			c-0.5,0.2-0.6,3.9-0.6,38.8c0,37.8,0,38.6,0.7,38.9c1,0.5,14.8,0.5,15.5-0.1c0.5-0.4,0.6-2.5,0.7-23.5c0.1-22.8,0.1-23.1,0.9-25.7
			c2.4-8.1,7-12.6,14.1-14.1c10.1-2.1,17.5,2.1,19.8,11.1c0.7,2.6,0.7,3.9,0.7,27.1c0,21.7,0.1,24.4,0.6,24.9
			c0.5,0.5,1.6,0.6,7.7,0.6c4.3,0,7.4-0.1,7.9-0.3c0.7-0.3,0.7-1,0.7-27.4c0-23.2-0.1-27.5-0.6-29.9c-1.8-9.5-7.4-16.8-15.5-20.1
			C218.6,35.8,210.4,35.1,204.2,36.4L204.2,36.4z M204.2,36.4">
   </path>
   <path class="st0" d="M287.2,36.3c-12,2-23.1,10-29,20.8c-5.2,9.5-6.4,21.8-3,32.1c4.6,14,16.1,24.2,30.8,27.4
			c3.5,0.8,10.3,1,13.9,0.5c22.6-3,37.9-22.1,35.8-44.6c-1.7-18.2-15.6-33.1-33.9-36.3C298.1,35.7,291,35.7,287.2,36.3L287.2,36.3z
			 M301.4,52.4c5.3,1.4,10.5,5.3,13.2,9.9c2.8,4.8,4.1,11.7,3.4,17.6c-1.4,12.3-8.8,20.1-20.3,21.5c-9.6,1.2-18.6-2.9-23.2-10.7
			c-3.7-6.2-4.6-15.7-2.1-23.5c2.7-8.5,9.4-14.1,18.5-15.6C292.9,51.4,299.3,51.8,301.4,52.4L301.4,52.4z M301.4,52.4">
   </path>
   <path class="st0" d="M381.9,36.3c-5,1-10.8,4.1-14.5,7.6l-2.6,2.5v-4c0-2.6-0.1-4.1-0.4-4.4c-0.5-0.5-13.7-0.6-14.7-0.2
			c-0.5,0.2-0.6,3.9-0.6,38.8c0,37.8,0,38.6,0.7,38.9c0.9,0.5,14.7,0.5,15.4,0c0.5-0.3,0.6-3.4,0.7-23.6c0.2-23,0.2-23.4,1-25.9
			c2.3-7.6,6.8-12.3,13.5-13.8c2.8-0.7,7.1-0.5,9.5,0.3c4.8,1.7,7.5,6,8.4,13.1c0.2,1.8,0.4,11.9,0.4,26.1c0,20.5,0.1,23.2,0.6,23.6
			c0.5,0.5,1.7,0.6,7.9,0.6c4.1,0,7.6-0.2,7.9-0.3c0.5-0.3,0.5-3.3,0.6-23.5c0.1-24.7,0.1-25.4,1.9-30.1c1-2.5,3.2-5.9,4.7-7
			c3.1-2.4,7.9-3.6,12.9-3.2c6.8,0.5,10.7,3.7,12.6,10.5c0.5,1.9,0.6,4.8,0.8,27.5c0.1,22.1,0.2,25.5,0.7,25.7
			c0.7,0.5,14.5,0.5,15.4,0c0.7-0.3,0.7-1,0.7-25.6c0-26.4-0.1-28.7-1.6-34.3c-2.6-9.5-9.3-16.3-18.4-18.7c-4-1-11.3-1.3-15.2-0.5
			c-6.8,1.4-13.2,5.1-16.8,10l-1.5,2l-1.5-2.1c-3.3-4.6-7.9-7.8-13.2-9.4C393.6,35.8,385.4,35.5,381.9,36.3L381.9,36.3z M381.9,36.3
			">
   </path>
   <path class="st0" d="M542.7,36.3c-5.7,1-11.9,3.8-15.4,7c-2.7,2.4-5.4,6.5-6.4,9.5c-0.9,3-1.3,8.5-0.7,11.9
			c0.8,4.5,3.8,9.4,7.5,11.9c4,2.8,8.6,4.4,18,6.6c8.2,1.9,11,3,13.4,5.4c1.9,1.9,2.4,4.5,1.5,6.9c-0.7,1.6-3.4,3.9-5.7,4.8
			c-4.3,1.6-11,1.7-15.1,0.1c-2.1-0.8-5.3-3-8.5-5.7c-1.3-1.1-2.6-2.1-2.8-2.1c-0.2,0-3,2.1-6.1,4.8c-4.3,3.6-5.8,5-5.8,5.6
			c0,1.1,5.8,7.1,8.7,9c5.4,3.6,12.8,5.4,21.4,5.4c20.2,0,33-10.6,32-26.5c-0.4-5.9-2.1-9.9-5.9-13.7c-4-4-9.9-6.5-20.7-8.7
			c-2.9-0.6-6.4-1.5-7.8-2.1c-2.7-1.1-5.4-3.2-6.2-4.9c-0.8-1.4-0.7-4.4,0.2-5.8c1-1.6,3.5-3.1,6.3-3.7c6.5-1.5,12.3,0.2,17.1,4.9
			c1.1,1,2.2,1.9,2.6,1.9c1,0,12.4-8.7,12.4-9.4c0-1-3.5-5.2-5.7-7c-3.7-3-8.6-5.1-14.5-6.1C553.1,35.7,546.1,35.7,542.7,36.3
			L542.7,36.3z M542.7,36.3">
   </path>
   <path class="st0" d="M486.5,37.8c-0.3,0.1-0.5,8.2-0.5,38.7c0,37.8,0,38.6,0.7,38.9c0.4,0.2,3.6,0.3,7.9,0.3c6,0,7.2-0.1,7.7-0.6
			c0.5-0.5,0.6-4.4,0.6-38.4c0-25.5-0.1-38.1-0.3-38.6c-0.3-0.6-0.8-0.7-8-0.6C490.3,37.5,486.7,37.6,486.5,37.8L486.5,37.8z
			 M486.5,37.8">
   </path>
   <path class="st0" d="M63,65.7c-5.9,1.4-10.9,5.9-13.3,12c-2.1,5.4-2.1,4.6-2.2,31.5l-0.1,24.7l1.5,0.4c11.3,3,21.9,3.2,34.5,0.5
			l1.1-0.2v-23.8c0-23.6-0.2-29.2-1.2-33.2c-1.6-6.4-5.8-10.9-11.3-12C69.4,65,65.5,65,63,65.7L63,65.7z M63,65.7">
   </path>
  </g>
 </g>
</svg>